<svg xmlns="http://www.w3.org/2000/svg" viewBox="0 0 313.02 76.46"><defs><style>.cls-1{fill:#fff;}.cls-2{fill:#deb200;}</style></defs><g id="Camada_2" data-name="Camada 2"><g id="Camada_1-2" data-name="Camada 1"><path class="cls-1" d="M42.16,1.25c-.14.71.18,1.54,3,3.09l.28.16.17,2.08-.21-.13a.18.18,0,0,0-.25.06L45,6.69a.18.18,0,0,0,.06.25l.57.36.17,2.1-.13-.08a.18.18,0,0,0-.25,0l-.11.18a.18.18,0,0,0,.06.25l.49.31L46,11.79l1.19.75.87-6.61c1.5.79,3,1.54,4,2.06l.11,2.19.79.5.56-2.11.67.15-.43-.53,1.65-1.42-.79-.5-2,.85C51.7,6.41,50.39,5.41,49,4.4L54.6.74,53.42,0h0L51.83.6,51.34.29a.18.18,0,0,0-.25.06L51,.53A.18.18,0,0,0,51,.78l.13.08-2,.75-.58-.36a.19.19,0,0,0-.25.06l-.11.18a.18.18,0,0,0,.06.25l.2.13-1.94.75-.27-.18C43.7.61,42.82.68,42.24,1.12a.22.22,0,0,0-.08.13"/><path class="cls-2" d="M56.66,15a10.36,10.36,0,0,1-2.44,6.34C50.75,25.48,43,29,30.43,33.5,17.12,38.24,3,43.13,2.2,53.07A31.51,31.51,0,0,1,31.51,10c.63,0,1.24,0,1.86,0A31.43,31.43,0,0,1,53.51,19,7.56,7.56,0,0,0,56.66,15"/><path class="cls-2" d="M25.15,76.46c-21.29-11-11.83-24.61,9.48-34.14C12.07,56.74,17.74,69,25.15,76.46"/><path class="cls-1" d="M60.29,28.67c3-8.11.69-15.44-5.14-19.13,12,13.9-9,26.54-24.62,39.53C22.4,55.83,21,67,29.45,71.34a12.78,12.78,0,0,0,8.37,1,31.51,31.51,0,0,0,22.47-43.7"/><path class="cls-1" d="M50.46,28.24C38,38.56,21.22,42.47,12.54,52.29,5.84,59.87,8.08,65.17,9.22,67.2c-6.61-5.76-6.39-15.11,3.93-21.49s23.65-9.56,37.9-17.95l-.59.48"/><path class="cls-1" d="M101.52,35.78q-1.09-5.64-4.06-8.3a11.21,11.21,0,0,0-7.76-2.65,15,15,0,0,0-5.33,1A10.9,10.9,0,0,0,80,28.89a15.51,15.51,0,0,0-3,5.68,29.7,29.7,0,0,0-1.1,8.71,26,26,0,0,0,.78,6.34,16.78,16.78,0,0,0,2.45,5.54,13,13,0,0,0,4.3,3.92,12.49,12.49,0,0,0,6.31,1.5,13.07,13.07,0,0,0,7.44-2.08,19.06,19.06,0,0,0,5.53-6l1.16.86a19.64,19.64,0,0,1-3.09,4.53,15.67,15.67,0,0,1-3.66,2.94,13.88,13.88,0,0,1-4.24,1.58,24.32,24.32,0,0,1-4.87.47,17.48,17.48,0,0,1-7.41-1.53,16.82,16.82,0,0,1-5.65-4.18A18.54,18.54,0,0,1,71.33,51a23.41,23.41,0,0,1-1.24-7.67,23,23,0,0,1,1.42-8.1,21.71,21.71,0,0,1,3.83-6.6A17.78,17.78,0,0,1,81,24.14a15.4,15.4,0,0,1,7-1.62,22.49,22.49,0,0,1,8.25,1.36,12.08,12.08,0,0,1,5,3.25,6.39,6.39,0,0,1,1.27,3.69c.12,1.58.17,3.23.17,5Z"/><path class="cls-1" d="M126.89,61.73l-2-2.59h-.28a8.85,8.85,0,0,1-2.83,2.13,11.31,11.31,0,0,1-5.25,1,10.64,10.64,0,0,1-2.65-.38,8,8,0,0,1-2.71-1.29A7.41,7.41,0,0,1,109,58.16a8,8,0,0,1-.87-3.92,6.15,6.15,0,0,1,1.21-3.92,8.44,8.44,0,0,1,3.23-2.48,16.75,16.75,0,0,1,4.67-1.3,40,40,0,0,1,5.6-.38h1.73a21.59,21.59,0,0,0-.47-4.93,8.1,8.1,0,0,0-1.26-3,4.18,4.18,0,0,0-1.94-1.48,7.22,7.22,0,0,0-2.39-.4,7.47,7.47,0,0,0-4.06,1,5.78,5.78,0,0,0-2.28,3.86h-2.6a20.23,20.23,0,0,1,.18-2.79,4.1,4.1,0,0,1,1.26-2.4,4.83,4.83,0,0,1,1.47-.92,10.64,10.64,0,0,1,2.11-.63,21.88,21.88,0,0,1,2.45-.35c.86-.08,1.74-.12,2.62-.12a16.17,16.17,0,0,1,3.78.44,7.13,7.13,0,0,1,3.23,1.73,8.86,8.86,0,0,1,2.25,3.69,19.28,19.28,0,0,1,.83,6.25V61.73Zm-2.3-13.26h-1.73a12.36,12.36,0,0,0-6.78,1.59,4.79,4.79,0,0,0-2.45,4.18,5.87,5.87,0,0,0,.46,2.42,5.22,5.22,0,0,0,1.21,1.73,4.64,4.64,0,0,0,1.73,1,6.76,6.76,0,0,0,2.08.31,5,5,0,0,0,3.37-1.06,11.16,11.16,0,0,0,2.11-2.4Z"/><path class="cls-1" d="M138.25,41.55a10.23,10.23,0,0,0-.72-4.18c-.48-1.06-1.59-1.59-3.32-1.59h-.57V34.63h4.61a6.83,6.83,0,0,1,3.32.64,3.43,3.43,0,0,1,1.58,2h.29A9.55,9.55,0,0,1,146,35.09a8.34,8.34,0,0,1,4.33-1,8.73,8.73,0,0,1,1.84.21,4,4,0,0,1,1.62.66,4.74,4.74,0,0,1,1.09,1.1,12.92,12.92,0,0,1,.93,1.49l-2.31,1.73A3.83,3.83,0,0,0,151.66,38a8.24,8.24,0,0,0-2.74-.44,6.53,6.53,0,0,0-3.17.78,6.18,6.18,0,0,0-2.31,2.11V61.73h-5.19Z"/><path class="cls-1" d="M161.55,41.55a10.21,10.21,0,0,0-.73-4.18c-.48-1.06-1.58-1.59-3.31-1.59h-1.15V34.63h5.19a6.78,6.78,0,0,1,3.31.64,3.45,3.45,0,0,1,1.59,2h.28a9.13,9.13,0,0,1,2.71-2.14,10.45,10.45,0,0,1,5.08-1,8.85,8.85,0,0,1,4.53,1.13,9.9,9.9,0,0,1,3.22,3,13.85,13.85,0,0,1,2,4.46,23,23,0,0,1,0,11,13.44,13.44,0,0,1-2,4.47,10.09,10.09,0,0,1-3.41,3,9.93,9.93,0,0,1-4.87,1.13,13.68,13.68,0,0,1-4.15-.55,23.94,23.94,0,0,1-3.06-1.18V72.69h-5.18Zm5.18,16.72c.89.43,1.8.82,2.74,1.18a7.51,7.51,0,0,0,2.74.55,5.74,5.74,0,0,0,3.32-.92,7.05,7.05,0,0,0,2.22-2.51A12.81,12.81,0,0,0,179,52.82a25.22,25.22,0,0,0,.4-4.64,27.19,27.19,0,0,0-.37-4.64,12.62,12.62,0,0,0-1.22-3.75,7.29,7.29,0,0,0-2.07-2.51,4.88,4.88,0,0,0-3-.92,7.17,7.17,0,0,0-2.13.29,6,6,0,0,0-1.65.78,7.32,7.32,0,0,0-1.3,1.12,10.59,10.59,0,0,0-1,1.27Z"/><path class="cls-1" d="M213.09,49.05H195.62a17.89,17.89,0,0,0,.52,4.38,11,11,0,0,0,1.53,3.49,7.28,7.28,0,0,0,2.45,2.28,6.7,6.7,0,0,0,3.29.8,8.48,8.48,0,0,0,4.7-1.21,12.12,12.12,0,0,0,3.37-3.4l1.15.86a11.16,11.16,0,0,1-10.38,6.06,11.73,11.73,0,0,1-5.3-1.13,11.19,11.19,0,0,1-3.78-3,12.77,12.77,0,0,1-2.28-4.47,19.57,19.57,0,0,1-.74-5.51,18.91,18.91,0,0,1,.77-5.51,13.34,13.34,0,0,1,2.28-4.46,11.28,11.28,0,0,1,3.63-3,10.27,10.27,0,0,1,4.85-1.13q5.88,0,8.7,3.29t2.83,9.4Zm-5.36-2.31q0-5-1.5-7.7a4.89,4.89,0,0,0-4.55-2.68,4.06,4.06,0,0,0-2.42.78,6.87,6.87,0,0,0-1.91,2.16,12.2,12.2,0,0,0-1.27,3.29,18,18,0,0,0-.46,4.15Z"/><path class="cls-1" d="M238.76,53.66q1.44-3.34,2.39-5.48t1.56-3.57c.4-1,.74-1.77,1-2.43s.53-1.29.8-1.93.56-1.33.87-2.1.72-1.77,1.24-3l1.93-4.58q1.16-2.75,2.88-6.89h2.77L237.66,62.31h-1L223.25,30.42c-.47-1.07-.9-2-1.3-2.74a6.75,6.75,0,0,0-1.36-1.81,5.22,5.22,0,0,0-1.61-1,7.71,7.71,0,0,0-2.08-.46V23.21c.16,0,.46,0,.9-.05s.79-.06,1.06-.06a14.4,14.4,0,0,1,2.37.23,8.48,8.48,0,0,1,2.68,1,10.4,10.4,0,0,1,2.65,2.19,13.9,13.9,0,0,1,2.34,3.92Z"/><path class="cls-1" d="M265.69,61.73H260.5V41.55a10.4,10.4,0,0,0-.72-4.18c-.49-1.06-1.59-1.59-3.32-1.59h-1.15V34.63h5.19a10.37,10.37,0,0,1,2.5.26,2.89,2.89,0,0,1,1.62,1,4.73,4.73,0,0,1,.83,2.13,20.76,20.76,0,0,1,.24,3.49Zm-.35-33.15a2.52,2.52,0,0,1-.72,1.9,2.68,2.68,0,0,1-1.93.69,2.91,2.91,0,0,1-2.28-1.09,3.86,3.86,0,0,1-1-2.6,2.5,2.5,0,0,1,.72-1.9,2.67,2.67,0,0,1,1.93-.69A2.93,2.93,0,0,1,264.39,26,3.86,3.86,0,0,1,265.34,28.58Z"/><path class="cls-1" d="M274.91,36.94h-4V34.63h4V29.44L277.79,26h2.31v8.65H287v2.31H280.1V54.81c0,3.46,1.34,5.19,4,5.19a7.61,7.61,0,0,0,2.48-.34,13.3,13.3,0,0,0,1.84-.81L289,60c-.31.23-.67.48-1.07.75a7.72,7.72,0,0,1-1.47.75,12.28,12.28,0,0,1-2,.58,13.91,13.91,0,0,1-2.65.23,7.07,7.07,0,0,1-5-1.79q-1.93-1.79-1.93-5.71Z"/><path class="cls-1" d="M310.14,61.73l-2-2.59h-.28A8.85,8.85,0,0,1,305,61.27a11.31,11.31,0,0,1-5.25,1,10.64,10.64,0,0,1-2.65-.38,8,8,0,0,1-2.71-1.29,7.41,7.41,0,0,1-2.13-2.48,8,8,0,0,1-.87-3.92,6.15,6.15,0,0,1,1.21-3.92,8.44,8.44,0,0,1,3.23-2.48,16.75,16.75,0,0,1,4.67-1.3,40,40,0,0,1,5.6-.38h1.73a21.59,21.59,0,0,0-.47-4.93,8.1,8.1,0,0,0-1.26-3,4.18,4.18,0,0,0-1.94-1.48,7.22,7.22,0,0,0-2.39-.4,7.47,7.47,0,0,0-4.06,1,5.78,5.78,0,0,0-2.28,3.86h-2.6a20.23,20.23,0,0,1,.18-2.79,4.1,4.1,0,0,1,1.26-2.4,4.83,4.83,0,0,1,1.47-.92,10.64,10.64,0,0,1,2.11-.63,21.88,21.88,0,0,1,2.45-.35c.86-.08,1.74-.12,2.62-.12a16.17,16.17,0,0,1,3.78.44,7.13,7.13,0,0,1,3.23,1.73,8.86,8.86,0,0,1,2.25,3.69,19.28,19.28,0,0,1,.83,6.25V61.73Zm-2.3-13.26h-1.73a12.36,12.36,0,0,0-6.78,1.59,4.79,4.79,0,0,0-2.45,4.18,5.87,5.87,0,0,0,.46,2.42,5.22,5.22,0,0,0,1.21,1.73,4.64,4.64,0,0,0,1.73,1,6.76,6.76,0,0,0,2.08.31,5,5,0,0,0,3.37-1.06,11.16,11.16,0,0,0,2.11-2.4Z"/></g></g></svg>