<svg width="314" height="84" viewBox="0 0 314 84" fill="none" xmlns="http://www.w3.org/2000/svg">
<path d="M175.756 9.20389C175.756 11.6666 174.802 13.9819 173.071 15.722L156.974 31.9067L149.501 24.3932L152.89 20.9866L156.982 25.101L161.807 20.2419L157.722 16.1349L161.11 12.7358L165.195 16.8428L169.698 12.3155C170.527 11.4823 170.981 10.3763 170.981 9.20389C170.981 8.03151 170.527 6.9255 169.698 6.0923C167.989 4.37429 165.21 4.37429 163.509 6.0923L153.909 15.7441C152.178 17.4843 149.875 18.4428 147.426 18.4428C144.977 18.4428 142.674 17.4843 140.943 15.7441C137.372 12.1533 137.372 6.30613 140.943 2.71527C144.515 -0.875595 150.33 -0.875595 153.902 2.71527L150.521 6.11442C148.812 4.39641 146.033 4.39641 144.331 6.11442C142.623 7.83243 142.623 10.627 144.331 12.345C145.16 13.1782 146.26 13.6353 147.426 13.6353C148.592 13.6353 149.699 13.1782 150.521 12.345L160.12 2.69315C163.692 -0.897716 169.507 -0.897716 173.079 2.69315C174.81 4.43328 175.763 6.74854 175.763 9.21126L175.756 9.20389Z" fill="#0FFF92"/>
<path d="M20.5119 50.4435C20.3652 49.9274 20.1966 49.4776 19.9912 49.0868C19.7859 48.7034 19.4852 48.3421 19.0745 48.0029C18.6712 47.6637 18.3192 47.3835 18.0185 47.155C17.7178 46.9264 17.2778 46.7125 16.6911 46.5061C16.1044 46.2996 15.6571 46.1448 15.3491 46.0342C15.0337 45.9236 14.5351 45.7982 13.8384 45.6508C13.1417 45.5107 12.665 45.4148 12.401 45.378C12.137 45.3411 11.6603 45.2674 10.9636 45.142C10.2963 45.0462 9.73894 44.9503 9.29159 44.8544C8.85158 44.7586 8.3529 44.6185 7.80288 44.4415C7.25287 44.2646 6.81286 44.0581 6.49018 43.8295C6.1675 43.601 5.88883 43.2986 5.66149 42.9226C5.43415 42.5539 5.31681 42.1263 5.31681 41.6396C5.31681 40.6073 5.76416 39.7889 6.66618 39.1843C7.56088 38.5796 8.87358 38.2773 10.597 38.2773C13.2517 38.2773 15.8111 38.9262 18.2825 40.2239L19.9692 36.9427C17.0505 35.4533 13.9997 34.7086 10.817 34.7086C7.80288 34.7086 5.41215 35.3206 3.6521 36.552C1.89205 37.7759 1.01203 39.5456 1.01203 41.8535C1.01203 42.7161 1.14403 43.5051 1.40804 44.1982C1.67205 44.8987 2.06806 45.4812 2.58874 45.9457C3.11675 46.4176 3.64477 46.8158 4.18745 47.155C4.7228 47.4941 5.39748 47.7669 6.19684 47.9881C6.99619 48.202 7.67088 48.3642 8.20623 48.4748C8.74158 48.5854 9.40893 48.696 10.2009 48.814C11.015 48.9319 11.6457 49.0352 12.0857 49.1237C12.5257 49.2048 13.0684 49.3375 13.699 49.5218C14.3297 49.7062 14.8137 49.9052 15.1364 50.1191C15.4591 50.3329 15.7451 50.6352 15.9944 51.0186C16.2438 51.402 16.3758 51.8518 16.3758 52.3532C16.3758 53.4814 15.8844 54.3662 14.9017 55.0077C13.9191 55.6418 12.6137 55.9662 10.9856 55.9662C7.3702 55.9662 4.28278 54.9634 1.72338 52.9726L0 56.2906C1.2687 57.2566 2.82341 58.0455 4.66413 58.6723C6.50485 59.299 8.47023 59.6087 10.553 59.6087C13.6404 59.6087 16.1044 58.9746 17.9452 57.699C19.7859 56.4234 20.7099 54.5579 20.7099 52.1025C20.7099 51.4979 20.6366 50.9449 20.4972 50.4214L20.5119 50.4435Z" fill="white"/>
<path d="M38.1711 41.4774V44.1835C36.5943 42.1189 34.5263 41.0792 31.9596 41.0792C29.3928 41.0792 27.3981 41.9567 25.748 43.7116C24.098 45.4664 23.2693 47.6932 23.2693 50.3919C23.2693 53.0906 24.0907 55.3026 25.726 57.0501C27.3614 58.7976 29.4295 59.6677 31.9155 59.6677C34.4016 59.6677 36.6017 58.6354 38.1637 56.5635V59.2695H42.0065V41.4774H38.1637H38.1711ZM36.5723 54.3809C35.531 55.4722 34.2476 56.0252 32.7149 56.0252C31.1822 56.0252 29.9135 55.4869 28.9088 54.403C27.8821 53.3413 27.3614 52.0067 27.3614 50.3993C27.3614 48.7919 27.8748 47.413 28.9088 46.3365C29.9355 45.2674 31.2189 44.7291 32.7516 44.7291C34.2843 44.7291 35.5603 45.2674 36.5943 46.3512C37.621 47.4351 38.1344 48.755 38.1344 50.3182C38.1344 51.8813 37.6137 53.2823 36.5723 54.3809Z" fill="white"/>
<path d="M54.4662 34.7086L53.0655 39.1327H57.0842L59.123 34.7086H54.4662ZM59.453 41.4774V50.8269C59.453 52.3164 58.9983 53.5551 58.0889 54.5431C57.1796 55.5312 56.0796 56.0252 54.7888 56.0252C53.6155 56.0252 52.6548 55.6123 51.8994 54.7791C51.1441 53.9459 50.7701 52.8694 50.7701 51.5495V41.4774H46.6413V51.874C46.6413 54.2556 47.272 56.1432 48.5407 57.5368C49.8094 58.9303 51.4814 59.6308 53.5641 59.6308C56.1235 59.6308 58.1329 58.6428 59.5923 56.6741V59.2695H63.5378V41.4774H59.4456H59.453Z" fill="white"/>
<path d="M81.9889 34.7086V44.0434C80.4122 42.1189 78.3735 41.153 75.8874 41.153C73.4014 41.153 71.3773 42.0304 69.7493 43.7853C68.0992 45.5402 67.2705 47.7448 67.2705 50.3919C67.2705 53.039 68.0845 55.2436 69.7126 57.0132C71.3406 58.7829 73.3574 59.6677 75.7774 59.6677C78.3808 59.6677 80.4782 58.6796 82.0549 56.7109V59.2695H86.037V34.7086H81.9816H81.9889ZM80.5369 54.4325C79.4955 55.5164 78.1975 56.0547 76.6428 56.0547C75.0881 56.0547 73.878 55.5164 72.8733 54.4325C71.8687 53.3486 71.3626 52.0067 71.3626 50.3919C71.3626 48.7771 71.8687 47.472 72.8733 46.4029C73.878 45.3337 75.1467 44.7955 76.6795 44.7955C78.2122 44.7955 79.4955 45.3337 80.5369 46.4029C81.5783 47.472 82.0989 48.7992 82.0989 50.3919C82.0989 51.9845 81.5783 53.3486 80.5369 54.4325Z" fill="white"/>
<path d="M108.338 49.92C108.338 47.3467 107.48 45.2379 105.772 43.5862C104.063 41.9346 101.877 41.1161 99.2227 41.1161C96.568 41.1161 94.2066 41.9788 92.4392 43.7116C90.6718 45.4443 89.7845 47.6711 89.7845 50.3919C89.7845 53.1127 90.6572 55.3321 92.4025 57.0648C94.1479 58.7976 96.4213 59.6677 99.2227 59.6677C101.137 59.6677 102.838 59.2548 104.32 58.4216C105.801 57.5884 106.842 56.4897 107.444 55.1183L104.21 53.6731C103.755 54.5136 103.088 55.1846 102.215 55.6786C101.342 56.1727 100.352 56.416 99.2521 56.416C97.7707 56.416 96.524 55.9736 95.5193 55.0814C94.5146 54.1892 93.9133 53.0242 93.7226 51.579H108.258C108.302 51.0039 108.331 50.4509 108.331 49.92H108.338ZM93.7666 48.873C94.0086 47.5236 94.6246 46.4176 95.6146 45.5549C96.6047 44.6849 97.7854 44.2572 99.1494 44.2572C100.513 44.2572 101.716 44.6849 102.684 45.5402C103.652 46.3955 104.232 47.5089 104.422 48.8803H93.7593L93.7666 48.873Z" fill="white"/>
<path d="M123.372 49.2785H135.898V45.7098H123.372V39.1769H136.33V35.5344H119.28V59.675H136.719V56.0326H123.372V49.2785Z" fill="white"/>
<path d="M167.307 43.483C166.017 42.2 164.315 41.5511 162.21 41.5511C160.92 41.5511 159.724 41.8166 158.624 42.3475C157.524 42.8784 156.615 43.6083 155.896 44.5521C154.745 42.5539 152.897 41.5585 150.33 41.5585C149.179 41.5585 148.108 41.8018 147.096 42.2959C146.091 42.7899 145.263 43.4535 144.617 44.3014V41.8829H140.672V59.675H144.801V50.2223C144.801 48.6813 145.211 47.4573 146.04 46.543C146.861 45.6287 147.91 45.1715 149.179 45.1715C150.33 45.1715 151.232 45.5697 151.892 46.3586C152.552 47.155 152.875 48.2094 152.875 49.5366V59.675H157.04V50.1486C157.04 48.637 157.444 47.4278 158.243 46.5208C159.042 45.6213 160.069 45.1715 161.316 45.1715C162.438 45.1715 163.355 45.5475 164.059 46.2923C164.763 47.037 165.115 48.0398 165.115 49.2859V59.675H169.243V48.5264C169.243 46.4545 168.598 44.7807 167.307 43.4904V43.483Z" fill="white"/>
<path d="M190.137 44.2056C188.509 42.436 186.484 41.5511 184.072 41.5511C181.49 41.5511 179.408 42.5392 177.824 44.5079V41.8756H173.805V66.9231H177.897V57.2123C179.43 59.1147 181.483 60.0658 184.072 60.0658C186.484 60.0658 188.509 59.1884 190.137 57.4335C191.765 55.6786 192.579 53.474 192.579 50.8343C192.579 48.1946 191.765 45.9826 190.137 44.213V44.2056ZM186.998 54.8676C185.978 55.9515 184.717 56.4897 183.214 56.4897C181.71 56.4897 180.361 55.9515 179.32 54.8676C178.278 53.7837 177.758 52.4417 177.758 50.8269C177.758 49.2121 178.278 47.8776 179.32 46.801C180.361 45.7319 181.644 45.1936 183.177 45.1936C184.71 45.1936 185.986 45.7319 186.998 46.8158C188.017 47.8997 188.523 49.2343 188.523 50.8195C188.523 52.4048 188.017 53.7763 186.998 54.8602V54.8676Z" fill="white"/>
<path d="M205.53 41.5216C203.161 41.5216 201.416 42.4507 200.294 44.3014V41.8829H196.348V59.675H200.404V50.5836C200.404 49.0204 200.836 47.767 201.694 46.8305C202.56 45.8941 203.718 45.4222 205.178 45.4222C206.065 45.4222 206.916 45.5623 207.722 45.8572L207.759 41.8535C207.04 41.6396 206.3 41.529 205.537 41.529L205.53 41.5216Z" fill="white"/>
<path d="M227.787 50.3255C227.787 47.7522 226.929 45.6434 225.22 43.9917C223.512 42.3401 221.326 41.5216 218.671 41.5216C216.017 41.5216 213.655 42.3843 211.888 44.1171C210.12 45.8499 209.233 48.0766 209.233 50.7974C209.233 53.5182 210.106 55.7376 211.851 57.4704C213.597 59.2031 215.87 60.0732 218.671 60.0732C220.585 60.0732 222.287 59.6603 223.768 58.8271C225.25 57.9939 226.291 56.8953 226.892 55.5238L223.658 54.0786C223.203 54.9192 222.536 55.5902 221.671 56.0842C220.798 56.5782 219.808 56.8215 218.708 56.8215C217.227 56.8215 215.98 56.3791 214.975 55.4869C213.971 54.5947 213.369 53.4297 213.179 51.9846H227.714C227.758 51.4094 227.787 50.8564 227.787 50.3255ZM213.215 49.2785C213.45 47.9292 214.066 46.8231 215.063 45.9605C216.053 45.0904 217.234 44.6627 218.598 44.6627C219.962 44.6627 221.165 45.0904 222.133 45.9457C223.101 46.801 223.68 47.9144 223.871 49.2859H213.208L213.215 49.2785Z" fill="white"/>
<path d="M248.886 50.3255C248.886 47.7522 248.028 45.6434 246.319 43.9917C244.61 42.3401 242.425 41.5216 239.77 41.5216C237.115 41.5216 234.754 42.3843 232.986 44.1171C231.219 45.8499 230.332 48.0766 230.332 50.7974C230.332 53.5182 231.204 55.7376 232.95 57.4704C234.695 59.2031 236.969 60.0732 239.77 60.0732C241.684 60.0732 243.385 59.6603 244.867 58.8271C246.348 57.9939 247.39 56.8953 247.991 55.5238L244.757 54.0786C244.302 54.9192 243.635 55.5902 242.762 56.0842C241.889 56.5782 240.899 56.8215 239.799 56.8215C238.318 56.8215 237.071 56.3791 236.067 55.4869C235.062 54.5947 234.46 53.4297 234.27 51.9846H248.805C248.849 51.4094 248.878 50.8564 248.878 50.3255H248.886ZM234.314 49.2785C234.556 47.9292 235.172 46.8231 236.162 45.9605C237.152 45.0904 238.333 44.6627 239.697 44.6627C241.061 44.6627 242.263 45.0904 243.231 45.9457C244.199 46.801 244.779 47.9144 244.969 49.2859H234.306L234.314 49.2785Z" fill="white"/>
<path d="M267.498 43.5715C266.171 42.2221 264.462 41.5511 262.387 41.5511C259.9 41.5511 257.95 42.5171 256.534 44.4415V41.8756H252.589V59.6677H256.718V50.5025C256.718 48.9614 257.15 47.6858 258.03 46.6757C258.903 45.6655 259.996 45.1568 261.316 45.1568C262.489 45.1568 263.457 45.577 264.227 46.4176C264.99 47.2582 265.379 48.3273 265.379 49.6324V59.6603H269.507V48.7255C269.507 46.6314 268.84 44.9134 267.513 43.5641L267.498 43.5715Z" fill="white"/>
<path d="M287.651 34.2662V44.4415C286.074 42.5171 284.035 41.5511 281.549 41.5511C279.063 41.5511 277.039 42.4286 275.411 44.1835C273.761 45.9383 272.932 48.143 272.932 50.7901C272.932 53.4371 273.746 55.6418 275.374 57.4114C277.002 59.181 279.026 60.0658 281.439 60.0658C284.05 60.0658 286.14 59.0778 287.717 57.1091V59.6677H291.699V34.2662H287.643H287.651ZM286.199 54.8381C285.157 55.922 283.859 56.4602 282.304 56.4602C280.75 56.4602 279.54 55.922 278.535 54.8381C277.53 53.7542 277.032 52.4122 277.032 50.7974C277.032 49.1826 277.53 47.8776 278.535 46.8084C279.54 45.7393 280.808 45.201 282.341 45.201C283.874 45.201 285.157 45.7393 286.199 46.8084C287.24 47.8776 287.761 49.2048 287.761 50.7974C287.761 52.3901 287.24 53.7542 286.199 54.8381Z" fill="white"/>
<path d="M314 50.3255C314 47.7522 313.142 45.6434 311.433 43.9917C309.725 42.3401 307.539 41.5216 304.884 41.5216C302.23 41.5216 299.868 42.3843 298.101 44.1171C296.334 45.8499 295.446 48.0766 295.446 50.7974C295.446 53.5182 296.319 55.7376 298.064 57.4704C299.81 59.2031 302.083 60.0732 304.884 60.0732C306.798 60.0732 308.5 59.6603 309.981 58.8271C311.463 57.9939 312.504 56.8953 313.105 55.5238L309.879 54.0786C309.424 54.9192 308.757 55.5902 307.884 56.0842C307.011 56.5782 306.021 56.8215 304.921 56.8215C303.44 56.8215 302.193 56.3791 301.188 55.4869C300.184 54.5947 299.582 53.4297 299.392 51.9846H313.927C313.971 51.4094 314 50.8564 314 50.3255ZM299.428 49.2785C299.663 47.9292 300.279 46.8231 301.276 45.9605C302.266 45.0904 303.447 44.6627 304.811 44.6627C306.175 44.6627 307.378 45.0904 308.346 45.9457C309.314 46.801 309.893 47.9144 310.084 49.2859H299.421L299.428 49.2785Z" fill="white"/>
<path d="M104.305 69.1941H113.039V71.7085H107.18V73.6919H112.159V76.221H107.18V78.4994H113.039V81.0285H104.305V69.1868V69.1941Z" fill="white"/>
<path d="M121.722 76.0514L125.066 71.4135H121.737L120.043 73.7657L118.349 71.4135H115.027L116.383 73.2864C116.383 73.2864 117.08 74.2449 117.945 75.4247L118.209 75.786C118.833 76.6487 119.515 77.5704 120.079 78.3372L120.769 79.3105C120.886 79.4727 120.989 79.6128 121.069 79.7234C121.201 79.9004 121.275 80.011 121.275 80.011L122.03 81.0506H125.359L121.722 76.0588V76.0514ZM116.442 78.3741L114.785 81.0433H118.107L120.087 78.3741H116.435H116.442Z" fill="white"/>
<path d="M127.332 71.4135H129.994V72.4385C130.684 71.6864 131.659 71.2513 132.825 71.2513C135.34 71.2513 137.284 73.279 137.284 76.2284C137.284 79.1778 135.34 81.2055 132.825 81.2055C131.718 81.2055 130.808 80.8221 130.134 80.1363V84H127.332V71.4135ZM132.326 78.4921C133.595 78.4921 134.475 77.5777 134.475 76.2137C134.475 74.8496 133.595 73.9648 132.326 73.9648C131.058 73.9648 130.178 74.8717 130.178 76.2137C130.178 77.5556 131.072 78.4921 132.326 78.4921Z" fill="white"/>
<path d="M144.133 71.2513C141.171 71.2513 139.11 73.2717 139.11 76.2432C139.11 76.4939 139.125 76.7445 139.154 76.9805H149.076C149.443 73.7583 147.375 71.2513 144.133 71.2513ZM141.999 75.2035C142.337 74.2892 143.099 73.7067 144.133 73.7067C145.167 73.7067 145.915 74.2818 146.238 75.1814L141.999 75.1961V75.2035ZM144.104 78.787C143.261 78.787 142.498 78.3741 142.109 77.6662H139.279C139.829 79.8119 141.633 81.1981 144.009 81.1981C146.385 81.1981 148.247 79.8488 148.907 77.6957H146.055C145.688 78.3888 144.94 78.7944 144.097 78.7944L144.104 78.787Z" fill="white"/>
<path d="M169.236 71.2513C166.273 71.2513 164.213 73.2717 164.213 76.2432C164.213 76.4939 164.227 76.7445 164.257 76.9805H174.179C174.545 73.7583 172.477 71.2513 169.236 71.2513ZM167.102 75.2035C167.439 74.2892 168.202 73.7067 169.236 73.7067C170.27 73.7067 171.018 74.2818 171.341 75.1814L167.102 75.1961V75.2035ZM169.207 78.787C168.363 78.787 167.601 78.3741 167.212 77.6662H164.381C164.931 79.8119 166.735 81.1981 169.111 81.1981C171.487 81.1981 173.35 79.8488 174.01 77.6957H171.157C170.791 78.3888 170.043 78.7944 169.199 78.7944L169.207 78.787Z" fill="white"/>
<path d="M154.276 71.4135V72.7629C154.642 72.1288 155.574 71.3251 156.806 71.2661V74.127C155.332 74.127 154.408 75.0634 154.408 76.5381V81.0359H151.533V71.4135H154.276Z" fill="white"/>
<path d="M158.925 69.1941H161.8V71.7822H158.925V69.1941ZM158.925 72.9988H161.8V81.0359H158.925V72.9988Z" fill="white"/>
<path d="M179.444 71.4135V72.6154C179.738 71.9666 180.625 71.2513 182.033 71.2513C184.211 71.2513 185.832 72.9398 185.832 75.3805V81.0359H182.972V75.6164C182.972 74.5473 182.268 73.8247 181.234 73.8247C180.2 73.8247 179.51 74.5473 179.51 75.6164V81.0359H176.636V71.4135H179.444Z" fill="white"/>
<path d="M187.951 76.2432C187.951 73.279 190.012 71.2513 192.916 71.2513C195.651 71.2513 197.463 73.0726 197.866 75.5574H195.006C194.757 74.6874 193.987 73.9426 192.931 73.9426C191.706 73.9426 190.797 74.8938 190.797 76.2358C190.797 77.5777 191.728 78.5289 192.931 78.5289C193.84 78.5289 194.625 78.0275 194.933 77.1796H197.851C197.367 79.5464 195.571 81.1907 192.901 81.1907C190.012 81.1907 187.951 79.2073 187.951 76.2284V76.2432Z" fill="white"/>
<path d="M204.723 71.2513C201.76 71.2513 199.7 73.2717 199.7 76.2432C199.7 76.4939 199.714 76.7445 199.744 76.9805H209.666C210.032 73.7583 207.964 71.2513 204.723 71.2513ZM202.589 75.2035C202.926 74.2892 203.689 73.7067 204.723 73.7067C205.757 73.7067 206.505 74.2818 206.828 75.1814L202.589 75.1961V75.2035ZM204.694 78.787C203.85 78.787 203.088 78.3741 202.699 77.6662H199.868C200.418 79.8119 202.222 81.1981 204.598 81.1981C206.974 81.1981 208.837 79.8488 209.497 77.6957H206.644C206.278 78.3888 205.53 78.7944 204.686 78.7944L204.694 78.787Z" fill="white"/>
<path d="M214.035 76.5928L217.115 79.6898L218.505 78.2925L215.425 75.1955L214.035 76.5928Z" fill="#0FFF92"/>
<path d="M217.116 73.5016L214.036 76.5986L215.426 77.9958L218.506 74.8989L217.116 73.5016Z" fill="#0FFF92"/>
<path d="M99.977 76.5969L96.8968 73.4999L95.507 74.8972L98.5873 77.9942L99.977 76.5969Z" fill="#0FFF92"/>
<path d="M96.8935 79.6955L99.9738 76.5985L98.584 75.2012L95.5038 78.2982L96.8935 79.6955Z" fill="#0FFF92"/>
</svg>
