<svg width="154" height="47" viewBox="0 0 154 47" fill="none" xmlns="http://www.w3.org/2000/svg">
<path d="M57.7381 9.16074C57.7306 8.41704 57.6255 7.67335 57.4304 6.95196C57.2428 6.26032 56.9801 5.591 56.6348 4.95142C55.9668 3.73176 55.0137 2.64596 53.8653 1.81302C52.732 0.987518 51.4111 0.422309 50.0526 0.162015C48.5966 -0.113152 47.1405 -0.0387827 45.722 0.392561C43.583 1.03214 42.2921 2.38567 41.0312 3.8805L38.1416 0.660292C37.7663 0.243822 37.2334 0.00583905 36.6705 0.00583905H26.3582C25.2699 0.00583905 24.3917 0.8834 24.3917 1.95432V3.4194C25.6977 5.10016 26.3131 7.20482 26.2306 9.71851C26.163 11.6819 25.3374 13.1767 24.3917 14.2997V16.2556C25.5626 17.2745 26.3506 18.4718 26.801 19.8997C27.0261 20.6062 27.1687 21.3797 27.2363 22.168V2.81701H36.2878L39.7552 6.68423C40.1005 7.06352 40.5883 7.27919 41.1062 7.27175C41.6166 7.26431 42.1044 7.03377 42.4347 6.63961C42.5547 6.49831 42.6673 6.35701 42.7874 6.2157C44.0633 4.66881 44.9865 3.55327 46.5626 3.08474C48.4765 2.5121 50.533 2.87651 52.2066 4.08129C53.9029 5.30839 54.8861 7.16763 54.9161 9.19049C54.9536 12.024 53.8954 14.6864 51.6738 17.3414C49.6323 19.7807 47.1105 21.8928 44.6637 23.938C44.4836 24.0867 44.3035 24.2355 44.1234 24.3916C43.2452 25.1279 42.3671 25.8418 41.4439 26.593L41.1512 26.831C41.1137 26.8607 41.0537 26.8607 41.0161 26.831C40.806 26.6599 40.5883 26.4889 40.3782 26.3104C39.1623 25.3287 38.014 24.3991 36.8957 23.4025C36.3778 22.9414 35.8224 22.4506 35.2745 21.9449C35.237 21.9151 35.1995 21.8779 35.1619 21.8556C35.0569 21.7813 34.9518 21.7218 34.8392 21.6771C34.6966 21.6251 34.554 21.5879 34.3964 21.5805C34.3964 21.5805 34.3364 21.5805 34.3063 21.5805C34.1037 21.5805 33.9161 21.6251 33.7434 21.6995C33.5708 21.7738 33.4057 21.8928 33.2706 22.0416C33.1355 22.1903 33.0379 22.3539 32.9779 22.5324C32.9479 22.6291 32.9178 22.7332 32.9103 22.8373C32.9103 22.8894 32.9028 22.9489 32.9028 23.0009V30.2891H27.2738V24.1983C27.2138 24.9197 27.0937 25.6262 26.906 26.3029C26.4332 28.006 25.6001 29.4488 24.4368 30.5792V31.1518C24.4368 32.2302 25.3224 33.1003 26.4032 33.1003H33.7735C34.8617 33.1003 35.7399 32.2228 35.7399 31.1518V26.1393C36.6855 26.95 37.6537 27.7308 38.5994 28.4968C38.8096 28.6679 39.0197 28.8389 39.2374 29.01C39.7627 29.4339 40.4232 29.6719 41.1062 29.6719C41.7892 29.6719 42.4497 29.4339 42.975 29.01L43.2677 28.772C44.2059 28.0134 45.0916 27.2921 45.9847 26.5409C46.1648 26.3922 46.345 26.2434 46.5176 26.0947C49.0544 23.9752 51.6738 21.7813 53.8728 19.1486C55.1412 17.6389 56.0719 16.144 56.7174 14.5823C57.4454 12.842 57.7981 11.02 57.7681 9.16074H57.7381Z" fill="#0FFF92"/>
<path d="M55.7642 33.1003H48.3939C47.3056 33.1003 46.4275 32.2228 46.4275 31.1518V29.1364C46.4275 28.363 47.0655 27.7308 47.846 27.7308C48.6266 27.7308 49.2645 28.363 49.2645 29.1364V30.2891H54.8936V21.9895C54.8936 21.2161 55.5315 20.5839 56.3121 20.5839C57.0926 20.5839 57.7306 21.2161 57.7306 21.9895V31.1518C57.7306 32.2302 56.845 33.1003 55.7642 33.1003Z" fill="#0FFF92"/>
<path d="M58.969 16.4787C58.969 13.4296 58.969 10.3804 58.969 7.33125C58.969 6.99658 59.0515 6.73629 59.2617 6.476C63.2846 1.54529 68.5008 -0.73042 74.8278 0.221511C81.3425 1.19575 85.8682 4.96629 88.0973 11.0943C91.6549 20.8591 85.1928 31.0998 75.2181 32.7657C68.726 33.844 63.3746 31.6055 59.2317 26.5409C59.029 26.2955 58.954 26.0426 58.954 25.7303C58.9615 22.6514 58.954 19.565 58.954 16.4861L58.969 16.4787ZM72.4937 24.7412C72.914 24.756 73.3943 24.6966 73.8746 24.5999C79.1134 23.4843 81.8904 17.624 79.4737 12.8049C77.7324 9.33923 73.7696 7.56179 70.2346 8.65503C66.1666 9.91931 63.7049 14.2699 64.7181 18.4123C65.6187 22.1085 68.831 24.7486 72.4937 24.7412Z" fill="white"/>
<path d="M113.946 22.0044C115.357 22.8299 116.775 23.5364 118.284 24.0644C120.13 24.704 122.014 24.9792 123.966 24.6445C124.498 24.5553 125.009 24.3916 125.452 24.0718C126.54 23.2835 126.412 21.9374 125.189 21.3945C124.213 20.9632 123.147 20.8963 122.112 20.6955C119.657 20.2269 117.158 19.9072 114.824 18.9329C114.291 18.7098 114.111 18.4644 114.118 17.8843C114.148 12.5966 114.141 7.30894 114.118 2.02126C114.118 1.56016 114.276 1.37424 114.681 1.2255C117.241 0.281007 119.898 0.0430239 122.6 0.176889C126.487 0.37025 129.932 1.76096 133.032 4.03667C133.97 4.72087 134.045 5.18196 133.392 6.11159C132.357 7.56923 131.328 9.02687 130.293 10.4845C129.782 11.2059 129.272 11.31 128.521 10.8415C126.555 9.6367 124.476 8.72196 122.164 8.44679C121.083 8.32036 119.988 8.32036 118.907 8.49141C118.532 8.55091 118.171 8.67734 117.856 8.90045C117.083 9.44334 117.076 10.3581 117.856 10.8936C118.539 11.3621 119.32 11.6149 120.1 11.8752C121.646 12.3884 123.275 12.5446 124.851 12.909C126.945 13.3924 129.009 13.965 130.803 15.2144C133.362 16.9993 134.818 19.3791 134.901 22.5398C134.961 25.0089 134.496 27.2995 132.867 29.2554C131.411 31.0031 129.474 31.9996 127.283 32.4607C121.496 33.6878 115.995 32.9739 110.884 29.895C110.538 29.6868 110.478 29.5752 110.779 29.2331C112.445 27.2921 113.413 25.0238 113.856 22.5324C113.871 22.4432 113.893 22.3465 113.916 22.2572C113.931 22.1977 113.946 22.1382 113.976 22.0118L113.946 22.0044Z" fill="white"/>
<path d="M130.976 32.3641C131.644 31.9327 132.319 31.5088 132.904 30.9733C134.931 29.1067 135.862 26.7417 136.079 24.057C136.222 22.2424 136.057 20.45 135.329 18.7619C134.24 16.2407 132.326 14.4782 129.865 13.2734C129.58 13.1321 129.467 12.9833 129.482 12.671C129.497 12.4033 129.565 12.2843 129.842 12.2322C130.413 12.1355 130.848 11.7934 131.178 11.3323C132.319 9.71851 133.467 8.11213 134.601 6.49087C135.329 5.4497 135.096 4.08873 134.083 3.31529C132.904 2.41541 131.659 1.61966 130.33 0.965207C130.225 0.913148 130.082 0.890838 130.015 0.742098C130.202 0.563611 130.435 0.578485 130.668 0.578485C138.038 0.578485 145.416 0.578485 152.786 0.578485C153.612 0.578485 153.979 0.965207 153.987 1.80558C153.987 3.64995 153.987 5.49432 153.987 7.34612C153.987 8.1865 153.589 8.58066 152.741 8.58066C148.365 8.58066 143.997 8.58066 139.622 8.58066C138.518 8.58066 138.196 8.90044 138.196 10.016C138.196 10.3878 138.196 10.7671 138.196 11.139C138.196 12.1355 138.563 12.5074 139.562 12.5074C143.307 12.5074 147.045 12.5074 150.79 12.5074C150.932 12.5074 151.075 12.5074 151.218 12.5074C151.788 12.5371 152.208 12.9238 152.216 13.489C152.231 15.5193 152.231 17.5571 152.216 19.5874C152.216 20.2269 151.765 20.5914 151.037 20.5914C147.502 20.5914 143.967 20.5914 140.425 20.5914C140.065 20.5914 139.697 20.5914 139.337 20.5914C138.639 20.6062 138.226 21.0078 138.203 21.7069C138.188 22.1754 138.203 22.644 138.203 23.1125C138.203 23.9454 138.608 24.3396 139.464 24.3396C143.787 24.3396 148.118 24.3396 152.441 24.3396C152.583 24.3396 152.726 24.3396 152.869 24.3396C153.567 24.3545 153.987 24.756 153.994 25.4551C154.002 27.411 154.002 29.367 153.994 31.3229C153.994 32.022 153.574 32.4236 152.869 32.4236C145.656 32.4236 138.436 32.4236 131.223 32.4236C131.156 32.4236 131.066 32.4533 130.991 32.3418L130.976 32.3641Z" fill="white"/>
<path d="M112.888 11.0795C112.888 13.8832 112.895 16.6795 112.888 19.4832C112.873 22.6142 112.107 25.5295 110.141 28.0357C108.137 30.6015 105.435 32.0591 102.26 32.6541C98.815 33.3011 95.4376 33.0631 92.2103 31.5981C90.1238 30.6536 88.4351 29.2331 87.1366 27.359C86.919 27.0466 86.8965 26.831 87.1366 26.4963C91.6474 20.041 91.3021 11.4662 86.2885 5.36789C85.9583 4.96629 85.6206 4.57213 85.2453 4.2226C84.9376 3.93999 84.825 3.63508 84.855 3.23348C84.885 2.75008 84.855 2.26668 84.8625 1.77584C84.8775 1.0247 85.2828 0.623107 86.0409 0.61567C88.1123 0.61567 90.1763 0.61567 92.2478 0.61567C93.2085 0.61567 93.5687 0.972644 93.5687 1.9097C93.5687 7.69566 93.5687 13.4891 93.5687 19.275C93.5687 20.4203 93.7414 21.5135 94.3418 22.5175C95.4451 24.3693 97.6967 25.3287 99.9333 24.9048C102.177 24.4734 103.731 22.9042 104.091 20.7103C104.181 20.1823 104.196 19.6543 104.196 19.1188C104.196 13.4072 104.196 7.69566 104.196 1.99151C104.196 1.66428 104.196 1.32962 104.407 1.04701C104.639 0.734661 104.962 0.608233 105.352 0.608233C107.484 0.608233 109.615 0.608233 111.747 0.608233C112.512 0.608233 112.903 1.00983 112.903 1.77584C112.903 4.87705 112.903 7.97083 112.903 11.072L112.888 11.0795Z" fill="white"/>
<path d="M25.6827 20.2418C25.405 19.3494 24.9622 18.5759 24.3992 17.914C23.7538 17.1555 22.9432 16.5308 22.0125 16.0102C21.4571 15.6978 21.4496 15.4598 21.93 15.0583C22.0276 14.9764 22.1326 14.9095 22.2302 14.8277C23.1233 14.0543 23.8889 13.2139 24.3992 12.2322C24.7895 11.4811 25.0297 10.6407 25.0672 9.68133C25.1123 8.22368 24.9096 6.89247 24.3992 5.70999C23.8063 4.32671 22.8081 3.15167 21.322 2.21462C19.5433 1.09164 17.5318 0.645418 15.4604 0.61567C10.792 0.548737 6.11617 0.578485 1.44782 0.571048C0.329524 0.578485 0.00679351 0.890838 0.00679351 2.00638C0.00679351 6.84041 0.00679351 11.667 0.00679351 16.501V29.9173C0.00679351 30.4007 -0.00821723 30.8841 0.00679351 31.3749C0.036815 32.0517 0.442105 32.4459 1.12509 32.4459C6.06363 32.4459 11.0022 32.4682 15.9482 32.4161C17.9146 32.3938 19.8285 32.0145 21.6148 31.1221C22.8006 30.5271 23.7012 29.7239 24.3842 28.8018C26.3281 26.1616 26.3957 22.5547 25.6677 20.2418H25.6827ZM12.2781 24.4437C11.49 24.4437 10.7019 24.4511 9.91388 24.4437C9.15584 24.4363 8.73554 24.0272 8.72803 23.2835C8.72053 22.5324 8.72053 21.7813 8.72803 21.0301C8.73554 20.2641 9.15584 19.8625 9.9439 19.8551C11.4075 19.8551 12.8785 19.8551 14.3421 19.8551C15.5354 19.8551 16.4586 20.5467 16.8113 21.6771C17.2166 22.9712 16.1283 24.3916 14.6873 24.4288C13.8842 24.4511 13.0811 24.4288 12.2706 24.4288L12.2781 24.4437ZM13.9668 12.6635C12.5633 12.7082 11.1598 12.6859 9.75627 12.6635C9.16335 12.6561 8.75055 12.2396 8.72803 11.6447C8.70552 10.9754 8.70552 10.2986 8.72803 9.62927C8.75055 8.98969 9.17836 8.59553 9.82382 8.58066C10.5143 8.56578 11.2123 8.58066 11.9028 8.58066C12.5483 8.58066 13.1937 8.58066 13.8392 8.58066C14.8374 8.58809 15.7606 9.47309 15.8056 10.4399C15.8506 11.5926 15.0325 12.6264 13.9668 12.6561V12.6635Z" fill="white"/>
<path d="M42.0519 46.8959V41.4223H44.6337C45.8346 41.4223 46.4876 42.2255 46.4876 43.1848C46.4876 44.1442 45.8271 44.94 44.6337 44.94H43.2302V46.8959H42.0519ZM45.2867 43.1848C45.2867 42.7237 44.9264 42.4486 44.4686 42.4486H43.2302V43.9137H44.4686C44.9339 43.9137 45.2867 43.6311 45.2867 43.1848Z" fill="#0FFF92"/>
<path d="M51.5162 46.8959L50.4279 44.9548H49.5648V46.8959H48.3864V41.4223H50.9683C52.1166 41.4223 52.8296 42.166 52.8296 43.1848C52.8296 44.1442 52.2066 44.6722 51.6137 44.8061L52.8671 46.8884H51.5087L51.5162 46.8959ZM51.6287 43.1774C51.6287 42.7237 51.2685 42.4486 50.8106 42.4486H49.5648V43.9285H50.8106C51.276 43.9285 51.6287 43.6534 51.6287 43.1848V43.1774Z" fill="#0FFF92"/>
<path d="M54.6309 44.1665C54.6309 42.5155 55.8468 41.333 57.5205 41.333C59.1941 41.333 60.4025 42.5155 60.4025 44.1665C60.4025 45.8175 59.1866 47 57.5205 47C55.8543 47 54.6309 45.8175 54.6309 44.1665ZM59.1941 44.1665C59.1941 43.1402 58.5412 42.3668 57.5205 42.3668C56.4997 42.3668 55.8392 43.1402 55.8392 44.1665C55.8392 45.1928 56.4922 45.9663 57.5205 45.9663C58.5487 45.9663 59.1941 45.1854 59.1941 44.1665Z" fill="#0FFF92"/>
<path d="M62.3989 46.8959V41.4223H64.5755C66.3017 41.4223 67.5026 42.5155 67.5026 44.1516C67.5026 45.7878 66.3017 46.8884 64.583 46.8884H62.3989V46.8959ZM66.3092 44.1591C66.3092 43.1997 65.7163 42.456 64.5905 42.456H63.5773V45.877H64.583C65.6788 45.877 66.3092 45.0961 66.3092 44.1591Z" fill="#0FFF92"/>
<path d="M69.514 44.7094V41.4297H70.7074V44.6797C70.7074 45.4457 71.1577 45.9663 72.0058 45.9663C72.8539 45.9663 73.2967 45.4382 73.2967 44.6797V41.4297H74.4976V44.7094C74.4976 46.0629 73.687 47 72.0058 47C70.3246 47 69.514 46.0629 69.514 44.7094Z" fill="#0FFF92"/>
<path d="M76.494 44.1665C76.494 42.4783 77.7774 41.333 79.4436 41.333C80.652 41.333 81.3575 41.9801 81.7478 42.6717L80.7346 43.1625C80.5019 42.7163 80.0065 42.3668 79.4436 42.3668C78.4304 42.3668 77.7024 43.1328 77.7024 44.1665C77.7024 45.2003 78.4304 45.9663 79.4436 45.9663C80.0065 45.9663 80.5019 45.6167 80.7346 45.1705L81.7478 45.6539C81.3575 46.3381 80.652 47 79.4436 47C77.7774 47 76.494 45.8547 76.494 44.1665Z" fill="#0FFF92"/>
<path d="M84.8925 46.8959V42.4486H83.2789V41.4223H87.6845V42.4486H86.0784V46.8959H84.8925Z" fill="#0FFF92"/>
<path d="M89.6059 46.8959V41.4223H90.7843V46.8959H89.6059Z" fill="#0FFF92"/>
<path d="M92.7807 44.1665C92.7807 42.5155 93.9966 41.333 95.6702 41.333C97.3439 41.333 98.5523 42.5155 98.5523 44.1665C98.5523 45.8175 97.3364 47 95.6702 47C94.0041 47 92.7807 45.8175 92.7807 44.1665ZM97.3439 44.1665C97.3439 43.1402 96.691 42.3668 95.6702 42.3668C94.6495 42.3668 93.9891 43.1402 93.9891 44.1665C93.9891 45.1928 94.642 45.9663 95.6702 45.9663C96.6985 45.9663 97.3439 45.1854 97.3439 44.1665Z" fill="#0FFF92"/>
<path d="M104.361 46.8959L101.727 43.3261V46.8959H100.549V41.4223H101.757L104.316 44.8582V41.4223H105.495V46.8959H104.361Z" fill="#0FFF92"/>
<path d="M107.379 46.1299L108.024 45.2151C108.414 45.6167 109.015 45.9588 109.78 45.9588C110.433 45.9588 110.741 45.6688 110.741 45.349C110.741 44.3971 107.559 45.059 107.559 43.0064C107.559 42.0916 108.354 41.3405 109.653 41.3405C110.531 41.3405 111.259 41.6008 111.807 42.1065L111.154 42.9766C110.704 42.5676 110.111 42.3742 109.548 42.3742C109.052 42.3742 108.767 42.5899 108.767 42.9171C108.767 43.7798 111.942 43.1923 111.942 45.2374C111.942 46.2414 111.214 46.9926 109.728 46.9926C108.662 46.9926 107.896 46.643 107.379 46.1224V46.1299Z" fill="#0FFF92"/>
</svg>
