<svg width="40" height="34" viewBox="0 0 40 34" fill="none" xmlns="http://www.w3.org/2000/svg">
    <path d="M39.1625 9.64217C39.1625 12.2222 38.1666 14.6477 36.3587 16.4707L19.5439 33.4261L11.7378 25.5547L15.277 21.986L19.5516 26.2963L24.5922 21.2058L20.3253 16.9032L23.8644 13.3422L28.1313 17.6448L32.8349 12.9019C33.7005 12.0291 34.1755 10.8704 34.1755 9.64217C34.1755 8.41397 33.7005 7.25528 32.8349 6.38241C31.05 4.58259 28.1467 4.58259 26.3694 6.38241L16.3418 16.4938C14.5339 18.3168 12.1285 19.321 9.56991 19.321C7.0113 19.321 4.60588 18.3168 2.798 16.4938C-0.932667 12.732 -0.932667 6.60642 2.798 2.84457C6.52867 -0.91729 12.6035 -0.91729 16.3341 2.84457L12.8026 6.40558C11.0177 4.60576 8.11441 4.60576 6.33717 6.40558C4.55227 8.2054 4.55227 11.133 6.33717 12.9328C7.20281 13.8057 8.35189 14.2846 9.56991 14.2846C10.7879 14.2846 11.9447 13.8057 12.8026 12.9328L22.8303 2.82139C26.5609 -0.940464 32.6357 -0.940464 36.3664 2.82139C38.1743 4.64439 39.1701 7.06989 39.1701 9.64989L39.1625 9.64217Z" fill="#0FFF92"/>
</svg>